Genre:Action | Adventure | Drama
Language:English
IMDb:http://www.imdb.com/title/tt1601913/
Source:INFERNO/CrEwSaDe Thanks Good Job
Encoder:Tony


Format : AVI
Format/Info : Audio Video Interleave
File size : 1.63 GiB
Duration : 1h 56mn
Overall bit rate : 2 000 Kbps


Video
ID : 0
Format : MPEG-4 Visual
Format profile : Advanced Simple@L5
Format settings, BVOP : 1
Format settings, QPel : No
Format settings, GMC : No warppoints
Format settings, Matrix : Default (H.263)
Codec ID : XVID
Codec ID/Hint : XviD
Duration : 1h 56mn
Bit rate : 1 767 Kbps
Width : 1 280 pixels
Height : 536 pixels
Display aspect ratio : 2.40:1
Frame rate : 25.000 fps
Color space : YUV
Chroma subsampling : 4:2:0
Bit depth : 8 bits
Scan type : Progressive
Compression mode : Lossy
Bits/(Pixel*Frame) : 0.103
Stream size : 1.44 GiB (88%)
Writing library : XviD 1.2.1 (UTC 2008-12-04)

Audio
ID : 1
Format : AC-3
Format/Info : Audio Coding 3
Mode extension : CM (complete main)
Codec ID : 2000
Duration : 1h 56mn
Bit rate mode : Constant
Bit rate : 224 Kbps
Channel(s) : 2 channels
Channel positions : Front: L R
Sampling rate : 48.0 KHz
Bit depth : 16 bits
Compression mode : Lossy
Stream size : 187 MiB (11%)
Alignment : Aligned on interleaves
Interleave, duration : 40 ms (1.00 video frame)
Interleave, preload duration : 512 ms


Plot:
In Alaska, an oil drilling team struggle to survive after a plane crash strands them in the wild. Hunting the humans are a pack of wolves who see them as intruders

[img]http://img577.imageshack.us/img577/2896/vlcsnap2012021915h22m36.png[/img]

[img]http://img444.imageshack.us/img444/9539/vlcsnap2012021915h18m34.png[/img]

[img]http://img838.imageshack.us/img838/7562/vlcsnap2012021915h16m41.png[/img]